HIERARCHY
ROOT Hips
{
	OFFSET -0.001795 -0.223333 0.028219
	CHANNELS 6 Xposition Yposition Zposition Zrotation Yrotation Xrotation 
	JOINT LeftUpLeg
	{
		OFFSET 0.069520 -0.091406 -0.006815
		CHANNELS 3 Zrotation Yrotation Xrotation
		JOINT LeftLeg
		{
			OFFSET 0.034277 -0.375199 -0.004496
			CHANNELS 3 Zrotation Yrotation Xrotation
			JOINT LeftFoot
			{
				OFFSET -0.013596 -0.397961 -0.043693
				CHANNELS 3 Zrotation Yrotation Xrotation
				JOINT LeftToe
				{
					OFFSET 0.026358 -0.055791 0.119288
					CHANNELS 3 Zrotation Yrotation Xrotation
					End Site
					{
						OFFSET 0.000000 0.000000 0.000000
					}
				}
			}
		}
	}
	JOINT RightUpLeg
	{
		OFFSET -0.067670 -0.090522 -0.004320
		CHANNELS 3 Zrotation Yrotation Xrotation
		JOINT RightLeg
		{
			OFFSET -0.038290 -0.382569 -0.008850
			CHANNELS 3 Zrotation Yrotation Xrotation
			JOINT RightFoot
			{
				OFFSET 0.015774 -0.398415 -0.042312
				CHANNELS 3 Zrotation Yrotation Xrotation
				JOINT RightToe
				{
					OFFSET -0.025372 -0.048144 0.123348
					CHANNELS 3 Zrotation Yrotation Xrotation
					End Site
					{
						OFFSET 0.000000 0.000000 0.000000
					}
				}
			}
		}
	}
	JOINT Spine
	{
		OFFSET -0.002533 0.108963 -0.026696
		CHANNELS 3 Zrotation Yrotation Xrotation
		JOINT Spine1
		{
			OFFSET 0.005487 0.135180 0.001092
			CHANNELS 3 Zrotation Yrotation Xrotation
			JOINT Spine2
			{
				OFFSET 0.001457 0.052922 0.025425
				CHANNELS 3 Zrotation Yrotation Xrotation
				JOINT Neck
				{
					OFFSET -0.002778 0.213870 -0.042857
					CHANNELS 3 Zrotation Yrotation Xrotation
					JOINT Head
					{
						OFFSET 0.005152 0.064970 0.051349
						CHANNELS 3 Zrotation Yrotation Xrotation
						End Site
						{
							OFFSET 0.000000 0.000000 0.000000
						}
					}
				}
				JOINT LeftShoulder
				{
					OFFSET 0.078845 0.121749 -0.034090
					CHANNELS 3 Zrotation Yrotation Xrotation
					JOINT LeftArm
					{
						OFFSET 0.090977 0.030469 -0.008868
						CHANNELS 3 Zrotation Yrotation Xrotation
						JOINT LeftForeArm
						{
							OFFSET 0.259612 -0.012772 -0.027456
							CHANNELS 3 Zrotation Yrotation Xrotation
							JOINT LeftHand
							{
								OFFSET 0.249234 0.008986 -0.001171
								CHANNELS 3 Zrotation Yrotation Xrotation
								End Site
								{
									OFFSET 0.000000 0.000000 0.000000
								}
							}
						}
					}
				}
				JOINT RightShoulder
				{
					OFFSET -0.081759 0.118833 -0.038615
					CHANNELS 3 Zrotation Yrotation Xrotation
					JOINT RightArm
					{
						OFFSET -0.096012 0.032551 -0.009143
						CHANNELS 3 Zrotation Yrotation Xrotation
						JOINT RightForeArm
						{
							OFFSET -0.253742 -0.013329 -0.021401
							CHANNELS 3 Zrotation Yrotation Xrotation
							JOINT RightHand
							{
								OFFSET -0.255298 0.007772 -0.005559
								CHANNELS 3 Zrotation Yrotation Xrotation
								End Site
								{
									OFFSET 0.000000 0.000000 0.000000
								}
							}
						}
					}
				}
			}
		}
	}
}
MOTION
Frames: 15
Frame Time: 0.050000
0.078846 0.945514 0.006143 0.486351 -0.086389 -0.588852 -0.904625 0.110752 1.019705 1.735663 -0.386931 3.935772 -0.568351 0.114585 2.805420 0.000000 0.000000 0.000000 -2.920030 0.206188 -1.921717 -3.126645 0.894609 8.252367 -0.770792 -2.459169 1.057571 0.000000 0.000000 0.000000 -3.637627 0.029610 -0.871154 1.192368 -0.448309 -3.186134 0.764262 -5.909350 6.834071 -0.872791 1.070876 -18.235235 0.000000 0.000000 0.000000 -7.889908 -7.440123 3.167600 -50.960577 -2.461475 -5.157118 -24.432161 -55.737785 17.120775 0.000000 0.000000 0.000000 -4.993537 13.670138 4.576497 34.217668 29.497264 3.910453 -115.375040 26.805640 -39.692107 0.000000 0.000000 0.000000 
0.067580 0.946017 0.005672 0.050499 -0.625457 -0.919379 0.155324 0.016429 0.195260 1.000998 -0.370963 6.076248 -0.084597 0.988771 2.616696 0.000000 0.000000 0.000000 -1.770109 0.132222 -1.110622 -3.005006 0.759291 6.555538 -0.363042 -1.372192 0.885403 0.000000 0.000000 0.000000 -2.484653 0.026183 -0.703634 1.198363 -0.484036 -2.457131 0.230244 -4.435523 6.608631 -0.188703 0.807129 -17.919998 0.000000 0.000000 0.000000 -7.289512 -7.795487 3.125658 -51.743197 -0.068953 -6.188779 -24.209067 -47.869455 13.878108 0.000000 0.000000 0.000000 -6.905563 15.548122 5.049093 26.163166 35.097358 3.585081 -114.565348 16.473148 -23.467923 0.000000 0.000000 0.000000 
0.055670 0.946702 0.005024 -0.438922 -0.544193 -1.138678 1.463949 -0.118622 -1.357436 0.515455 -0.441900 9.974155 0.018181 0.764249 1.604524 0.000000 0.000000 0.000000 -0.930927 0.024313 -0.050396 -2.277712 0.566655 5.367590 -0.347990 -1.783186 1.817897 0.000000 0.000000 0.000000 -1.746786 0.006274 0.046705 0.650769 -0.227068 -2.668733 0.460597 -3.043138 7.030570 1.029602 0.200344 -17.319805 0.000000 0.000000 0.000000 -6.498510 -9.257299 3.555331 -51.792750 2.423875 -7.289166 -24.627263 -44.588112 12.724349 0.000000 0.000000 0.000000 -9.421904 15.856437 4.975753 20.841875 37.753796 2.759916 -112.608020 11.177309 -14.327753 0.000000 0.000000 0.000000 
0.044400 0.947896 0.005115 -1.233774 -0.193594 -0.764978 2.974125 -0.200635 -2.633042 0.287205 -0.459661 11.528478 -0.126621 -0.041973 0.482942 0.000000 0.000000 0.000000 0.265980 -0.097873 0.899324 -1.471632 0.333476 3.341216 -0.268273 -1.996591 2.721393 0.000000 0.000000 0.000000 -0.945058 0.018137 -0.397252 0.438348 -0.141048 -2.220725 0.596406 -2.369047 6.975564 1.417607 0.110731 -17.917595 0.000000 0.000000 0.000000 -5.144099 -8.923370 3.277055 -51.801697 4.861111 -8.280320 -24.853389 -42.086044 11.862816 0.000000 0.000000 0.000000 -11.221031 15.861250 4.838665 17.662367 39.708751 2.209769 -111.371817 9.287847 -10.839957 0.000000 0.000000 0.000000 
0.035369 0.949636 0.006038 -1.469694 0.616521 -0.580816 3.829925 -0.236975 -3.332706 0.318622 -0.521250 12.521813 -0.442293 -0.807335 0.276228 0.000000 0.000000 0.000000 0.802812 -0.204050 1.735160 -1.205405 0.231809 2.033567 -0.063609 -1.775545 3.388194 0.000000 0.000000 0.000000 -1.010601 0.026135 -0.634391 0.408564 -0.122317 -2.195309 0.859963 -1.764864 7.007265 2.301243 -0.314677 -17.733767 0.000000 0.000000 0.000000 -4.421441 -8.367449 2.956355 -52.365499 7.350913 -9.442573 -23.304765 -41.828024 11.002054 0.000000 0.000000 0.000000 -11.418096 15.012523 4.550680 15.819040 40.252181 1.847856 -109.884779 8.581941 -8.967537 0.000000 0.000000 0.000000 
0.029995 0.951978 0.007380 -1.591982 0.835867 -0.651641 4.100019 -0.245734 -3.558524 0.347668 -0.591254 13.919991 -0.348789 -0.762987 -0.034339 0.000000 0.000000 0.000000 1.171809 -0.278976 2.288367 -1.214577 0.225250 1.872586 0.018455 -1.815888 3.943776 0.000000 0.000000 0.000000 -0.892579 0.029002 -0.732145 0.450090 -0.142501 -2.112385 1.421014 -1.633889 6.795675 2.558662 -0.419449 -18.072022 0.000000 0.000000 0.000000 -4.149529 -7.306691 2.529069 -52.125929 9.347128 -10.205805 -22.952783 -41.694438 10.792822 0.000000 0.000000 0.000000 -12.100277 13.742329 4.219511 14.861923 41.466566 1.690336 -107.902455 6.948013 -6.479439 0.000000 0.000000 0.000000 
0.029422 0.954521 0.009075 -1.569570 1.286331 -0.139189 3.818362 -0.240486 -3.238393 0.655035 -0.621633 12.813477 -0.850641 -1.454651 0.695404 0.000000 0.000000 0.000000 1.333074 -0.244560 1.913112 -1.737296 0.283491 1.733526 -0.013310 -1.815995 3.832440 0.000000 0.000000 0.000000 -0.526416 0.055800 -1.452883 0.479172 -0.144189 -2.345052 1.500874 -1.541357 6.910016 2.904235 -0.543558 -18.545086 0.000000 0.000000 0.000000 -4.326788 -6.818046 2.319657 -52.426270 10.899923 -10.935727 -20.704286 -40.231494 9.462963 0.000000 0.000000 0.000000 -12.383830 12.863191 3.979908 14.424718 42.234135 1.649769 -107.803576 2.515248 -0.510590 0.000000 0.000000 0.000000 
0.034086 0.955579 0.010624 -1.248649 1.790820 -0.074407 3.086694 -0.169119 -1.919523 1.274552 -0.683429 11.176921 -0.945523 -1.216591 1.521904 0.000000 0.000000 0.000000 0.907408 -0.219194 1.827017 -2.036243 0.380665 2.779451 -0.278728 -2.306977 3.586736 0.000000 0.000000 0.000000 0.290460 0.073938 -1.788025 0.596311 -0.191751 -2.402312 1.640297 -2.300753 7.049278 2.042898 -0.161989 -17.844079 0.000000 0.000000 0.000000 -4.674812 -6.441923 2.212290 -52.015143 12.322613 -11.407490 -19.144087 -39.665859 8.793351 0.000000 0.000000 0.000000 -12.940857 12.360328 3.902815 13.670634 42.957839 1.386573 -107.160377 -1.515339 4.281253 0.000000 0.000000 0.000000 
0.042456 0.955215 0.012403 -0.544582 1.848404 -0.169945 1.629428 -0.038085 -0.180029 1.427916 -0.629706 9.552417 -0.657577 -0.365144 2.033266 0.000000 0.000000 0.000000 -0.672433 -0.099647 1.171969 -1.916263 0.420448 3.794163 -0.598479 -2.906992 3.214891 0.000000 0.000000 0.000000 1.264033 0.076615 -1.684823 0.699703 -0.233717 -2.528158 1.564636 -2.550583 6.985122 1.019868 0.429961 -18.005836 0.000000 0.000000 0.000000 -4.927831 -6.843211 2.387552 -50.443668 13.064156 -11.302093 -19.631456 -38.967136 8.809992 0.000000 0.000000 0.000000 -13.068965 11.842093 3.814388 13.357946 43.074659 1.263685 -108.575374 -6.237304 10.363547 0.000000 0.000000 0.000000 
0.051135 0.952318 0.013972 0.177070 2.336900 -0.289360 0.793848 0.019553 0.384360 1.317104 -0.588443 9.073791 -0.762005 -0.492454 2.178724 0.000000 0.000000 0.000000 -2.210699 -0.039051 0.937341 -1.362096 0.391938 4.828699 -0.861511 -3.163279 2.315288 0.000000 0.000000 0.000000 2.128907 0.084314 -1.704855 0.966671 -0.324105 -3.164160 1.341683 -3.373626 7.560174 -0.459794 1.239171 -18.016326 0.000000 0.000000 0.000000 -5.257960 -6.670424 2.371670 -47.984587 13.762856 -10.983164 -17.649509 -38.789737 8.097321 0.000000 0.000000 0.000000 -11.812755 11.891607 3.886187 13.871040 41.686231 1.244629 -111.045114 -8.277681 13.260137 0.000000 0.000000 0.000000 
0.056481 0.948723 0.015901 0.731734 2.159255 -0.781009 0.183728 0.154535 1.789334 1.308324 -0.586787 9.100822 -0.510087 -0.431226 1.277315 0.000000 0.000000 0.000000 -3.636936 0.003444 0.791367 -0.435066 0.325631 6.670801 -1.221840 -3.356799 0.560126 0.000000 0.000000 0.000000 2.861472 0.071703 -1.347114 1.562922 -0.625706 -2.521496 1.351606 -4.027827 6.890236 -1.382609 1.656340 -16.881292 0.000000 0.000000 0.000000 -4.450016 -6.459998 2.328959 -45.192434 14.240293 -10.357448 -16.704517 -39.317256 7.935921 0.000000 0.000000 0.000000 -9.705723 11.994235 4.015060 14.481943 40.187092 1.289172 -112.702637 -7.591575 12.120937 0.000000 0.000000 0.000000 
0.057218 0.946150 0.017927 0.888873 3.295026 -1.306369 0.589110 0.187937 2.370619 0.605816 -0.474349 9.252978 -0.882837 -1.483294 0.719951 0.000000 0.000000 0.000000 -3.937094 -0.039029 1.265230 0.326790 0.217088 7.621208 -1.984767 -4.963398 -0.338266 0.000000 0.000000 0.000000 2.970797 0.059458 -1.073903 2.275313 -0.906222 -3.152299 1.097502 -4.433323 7.750956 -1.246599 1.639996 -17.950402 0.000000 0.000000 0.000000 -3.309344 -5.725568 2.017085 -42.601324 12.031599 -9.067589 -15.432945 -40.927693 7.801022 0.000000 0.000000 0.000000 -7.416699 10.105468 3.493475 17.217658 38.362207 1.885802 -114.909039 -6.195699 10.876922 0.000000 0.000000 0.000000 
0.054497 0.946713 0.019874 0.500846 3.908660 -1.096543 1.326686 0.147402 2.233117 1.001704 -0.541572 9.004546 -1.181456 -2.237986 0.483733 0.000000 0.000000 0.000000 -2.916964 -0.107875 1.811180 0.389586 0.169769 6.631143 -2.427200 -6.157251 -0.199808 0.000000 0.000000 0.000000 2.648182 0.095610 -1.726376 2.863826 -1.214962 -2.426678 0.918719 -4.490020 7.460180 -1.074461 1.557485 -17.540212 0.000000 0.000000 0.000000 -1.599610 -4.935824 1.703592 -41.441556 10.731688 -8.356483 -12.708291 -44.389508 7.388215 0.000000 0.000000 0.000000 -5.748505 8.925914 3.133401 20.717103 36.970454 2.671298 -116.406196 -3.774123 7.897384 0.000000 0.000000 0.000000 
0.051452 0.950736 0.021643 0.263635 3.546500 -0.819879 1.827064 0.111583 1.974374 0.855873 -0.500599 8.806320 -1.453170 -2.543299 0.962409 0.000000 0.000000 0.000000 -2.073385 -0.191871 2.569022 -0.152873 0.194273 4.632059 -1.989837 -5.514942 1.249394 0.000000 0.000000 0.000000 1.870998 0.088202 -1.759950 2.704441 -1.119151 -2.796421 1.459922 -3.716063 7.413436 0.012017 0.994446 -18.118712 0.000000 0.000000 0.000000 -1.078333 -4.648537 1.590992 -40.392204 9.419592 -7.730420 -10.105714 -51.080335 7.369931 0.000000 0.000000 0.000000 -6.022978 7.638271 2.755329 24.152795 36.591379 3.495164 -115.566706 -1.873746 5.376634 0.000000 0.000000 0.000000 
0.051127 0.956329 0.022599 0.436261 2.901432 -0.123561 1.934310 0.062881 1.334284 0.368223 -0.359706 7.804382 -2.068232 -2.864417 2.682453 0.000000 0.000000 0.000000 -1.970777 -0.227969 3.039169 -0.783904 0.206074 2.640772 -1.307976 -4.464649 2.994857 0.000000 0.000000 0.000000 1.593066 0.121378 -2.514706 1.924700 -0.763041 -2.896995 1.253043 -2.387677 7.427130 0.966520 0.574869 -18.454902 0.000000 0.000000 0.000000 -2.027419 -3.282908 1.048327 -40.813946 8.309764 -7.505273 -10.094092 -60.486663 8.826926 0.000000 0.000000 0.000000 -5.900730 6.836219 2.475870 25.416404 36.403746 3.850639 -112.998492 -0.303705 3.688684 0.000000 0.000000 0.000000 
